<?xml version="1.0" standalone="no"?>
<!DOCTYPE svg PUBLIC "-//W3C//DTD SVG 20010904//EN"
 "http://www.w3.org/TR/2001/REC-SVG-20010904/DTD/svg10.dtd">
<svg version="1.0" xmlns="http://www.w3.org/2000/svg"
 width="700.000000pt" height="700.000000pt" viewBox="0 0 700.000000 700.000000"
 preserveAspectRatio="xMidYMid meet">
<metadata>
Created by potrace 1.11, written by Peter Selinger 2001-2013
</metadata>
<g transform="translate(0.000000,700.000000) scale(0.100000,-0.100000)"
fill="#000000" stroke="none">
<path d="M3150 6125 l0 -175 -1225 0 -1225 0 0 -350 0 -350 1225 0 1225 0 0
-700 0 -700 -455 0 -455 0 0 -350 0 -350 207 0 208 0 -689 -689 c-408 -408
-686 -693 -682 -700 5 -8 -73 -11 -288 -11 l-296 0 0 -350 0 -350 1225 0 1225
0 0 -175 0 -175 350 0 350 0 0 175 0 175 1225 0 1225 0 0 350 0 350 -1225 0
-1225 0 0 700 0 700 455 0 455 0 0 350 0 350 -207 0 -208 0 693 693 c381 381
690 696 686 700 -4 4 124 7 284 7 l292 0 0 350 0 350 -1225 0 -1225 0 0 175 0
175 -350 0 -350 0 0 -175z m1600 -878 c0 -1 -202 -205 -450 -452 l-450 -450 0
453 0 452 450 0 c248 0 450 -1 450 -3z m-1600 -3047 l0 -450 -452 0 -453 0
450 450 c247 248 451 450 452 450 2 0 3 -202 3 -450z"/>
</g>
</svg>
